<svg viewBox="0 0 300 110" xmlns="http://www.w3.org/2000/svg" fill="none" stroke="#bf9c76" stroke-width="1.3" stroke-linecap="round" stroke-linejoin="round">
  <path d="M8 96 C 96 84, 184 56, 286 20"/>
  <g transform="translate(54,80) rotate(-42)"><path d="M0 0 C 9 -8 24 -8 32 0 C 24 8 9 8 0 0 Z"/><path d="M5 0 L28 0"/></g>
  <g transform="translate(78,73) rotate(18)"><path d="M0 0 C 7 -6 18 -6 24 0 C 18 6 7 6 0 0 Z"/><path d="M4 0 L20 0"/></g>
  <g transform="translate(108,66) rotate(-40)"><path d="M0 0 C 9 -8 24 -8 32 0 C 24 8 9 8 0 0 Z"/><path d="M5 0 L28 0"/></g>
  <g transform="translate(138,58) rotate(16)"><path d="M0 0 C 7 -6 18 -6 24 0 C 18 6 7 6 0 0 Z"/><path d="M4 0 L20 0"/></g>
  <g transform="translate(170,49) rotate(-38)"><path d="M0 0 C 8 -7 22 -7 30 0 C 22 7 8 7 0 0 Z"/><path d="M5 0 L26 0"/></g>
  <g transform="translate(206,39) rotate(14)"><path d="M0 0 C 7 -6 18 -6 24 0 C 18 6 7 6 0 0 Z"/><path d="M4 0 L20 0"/></g>
  <g transform="translate(236,30) rotate(-34)"><path d="M0 0 C 7 -6 18 -6 24 0 C 18 6 7 6 0 0 Z"/><path d="M4 0 L20 0"/></g>
  <g transform="translate(284,20)">
    <path d="M0 0 C 4 -7 12 -7 15 0 C 12 7 4 7 0 0 Z"/>
    <g transform="rotate(72)"><path d="M0 0 C 4 -7 12 -7 15 0 C 12 7 4 7 0 0 Z"/></g>
    <g transform="rotate(144)"><path d="M0 0 C 4 -7 12 -7 15 0 C 12 7 4 7 0 0 Z"/></g>
    <g transform="rotate(216)"><path d="M0 0 C 4 -7 12 -7 15 0 C 12 7 4 7 0 0 Z"/></g>
    <g transform="rotate(288)"><path d="M0 0 C 4 -7 12 -7 15 0 C 12 7 4 7 0 0 Z"/></g>
    <circle cx="0" cy="0" r="2.4"/>
  </g>
</svg>
